<svg width="20" height="101" viewBox="0 0 20 101" fill="none" xmlns="http://www.w3.org/2000/svg">
<path d="M7.46137 16.3688C6.5965 16.3688 5.70631 16.2988 4.81077 16.1584C3.23348 15.9109 1.6368 15.0859 1.18499 14.8388L0 14.191L1.28295 13.769C2.68538 13.3079 3.5385 13.0218 4.59456 12.5738C3.53713 12.0617 2.72216 11.1406 2.32986 9.94977L2.03139 9.04371L2.27614 9.08109C2.04406 8.84717 1.8608 8.60975 1.71874 8.39384C1.21353 7.62647 0.946041 6.68882 1.00296 5.88529L1.05911 5.09443L1.53259 5.27784C1.33285 4.90064 1.1885 4.49781 1.10366 4.0756C0.896908 3.04594 1.06994 1.95203 1.59103 0.995461L2.00347 0.23832L2.55507 0.900856C4.29961 2.9965 6.50922 4.23963 9.13174 4.60355C9.02462 3.86518 9.10489 3.1526 9.37054 2.51386C9.67983 1.77015 10.2301 1.1395 10.9613 0.68998C11.7733 0.190865 12.7581 -0.0509869 13.7342 0.00898011C14.7698 0.0726092 15.7101 0.46064 16.4568 1.13187C16.8215 1.03712 17.0902 0.935951 17.4534 0.799233C17.6719 0.716988 17.9197 0.623604 18.2298 0.516793L19.3723 0.123116L18.6272 2.25111C18.6764 2.24699 18.727 2.24348 18.78 2.24119L20.0001 2.18595L19.2789 3.17152C19.2376 3.22797 19.2271 3.244 19.2124 3.26612C19.1543 3.35371 19.082 3.46265 18.0921 4.78437C17.8443 5.11533 17.7206 5.54639 17.7436 5.99836C17.8314 7.71589 17.6206 9.26984 17.1169 10.6169C16.6406 11.8913 15.9023 12.9847 14.923 13.8669C13.7112 14.9582 12.1659 15.7054 10.33 16.0875C9.42944 16.2748 8.46234 16.3688 7.46137 16.3688Z" fill="white"/>
<path d="M0 44.4056L0.271912 45.4177L0.292511 45.4039C0.847016 45.0358 1.28555 44.745 1.77826 44.745C2.21848 44.745 2.63977 44.9819 2.95349 45.4487C4.6605 47.9865 5.98069 56.8114 9.17497 56.8114C12.3276 56.8114 20.2452 47.1896 19.9942 42.848C19.8694 40.6912 18.3275 40.3689 17.4191 40.3689C15.6702 40.3689 13.9269 41.451 13.047 43.5207C14.5487 43.2794 15.6128 44.1227 15.4984 45.6672C15.3662 47.4214 12.4292 51.9542 11.0625 51.9542C8.72605 51.9542 7.63291 44.061 6.8512 41.6649C6.65543 41.0668 6.08933 40.6952 5.37278 40.6952C4.86405 40.6952 4.33747 40.8907 3.88932 41.2463C2.85675 42.0652 1.80405 42.9076 0.782319 43.757L0 44.4056Z" fill="white"/>
<path d="M17.0703 80.8113H2.92969C1.31439 80.8113 0 82.1257 0 83.741V97.8816C0 99.4969 1.31439 100.811 2.92969 100.811H17.0703C18.6856 100.811 20 99.4969 20 97.8816V83.741C20 82.1257 18.6856 80.8113 17.0703 80.8113ZM7.07031 96.6707H4.72656V88.4675H7.07031V96.6707ZM7.07031 87.2957H4.72656V84.9519H7.07031V87.2957ZM15.2734 96.6707H12.9297V91.9832C12.9297 91.3371 12.4039 90.8113 11.7578 90.8113C11.1118 90.8113 10.5859 91.3371 10.5859 91.9832V96.6707H8.24219V88.4675H10.5859V88.9093C11.2 88.7184 11.5988 88.4675 12.3438 88.4675C13.9333 88.4692 15.2734 89.8951 15.2734 91.5803V96.6707Z" fill="white"/>
</svg>
